<svg xmlns="http://www.w3.org/2000/svg" xmlns:v="https://svgstorm.com"
viewBox = "0 0 113 50"
width="113"
height="50">
<g fill="None" fill-opacity="0.0" stroke="#000000" stroke-opacity="0.00" stroke-width="0.3"><path d="
M 0.00 50.00 
L 113.00 50.00
L 113.00 0.00
L 0.00 0.00
L 0.00 50.00
M 30.00 10.00 
C 31.86 10.00 34.18 9.62 36.00 10.00
C 38.90 10.60 40.73 12.75 40.00 16.00
C 46.50 15.03 45.97 17.38 46.00 22.00
C 46.01 23.91 45.99 25.91 46.00 28.00
C 46.01 30.18 46.88 30.57 46.00 33.00
C 45.84 33.44 45.83 34.57 46.00 35.00
C 46.43 36.12 47.61 37.61 46.00 39.00
C 47.85 38.80 50.92 38.44 52.00 40.00
C 53.91 42.76 50.98 45.33 49.00 46.00
C 43.18 47.96 33.20 46.00 27.00 46.00
C 21.15 46.00 8.13 48.54 3.00 46.00
C 1.37 45.19 -0.23 41.78 1.00 40.00
C 2.02 38.52 5.24 38.81 7.00 39.00
C 5.07 37.03 6.99 35.88 7.00 34.00
C 7.01 32.01 7.02 29.87 7.00 28.00
C 6.97 25.88 6.99 24.01 7.00 22.00
C 7.03 17.62 6.48 14.80 13.00 16.00
C 12.81 15.82 12.94 13.30 13.00 13.00
C 13.41 11.07 15.45 10.34 17.00 10.00
C 19.10 9.54 21.84 10.00 24.00 10.00
C 21.83 8.27 22.92 3.68 26.00 4.00
C 29.91 3.13 30.43 7.10 30.00 10.00
M 90.00 17.00 
C 90.71 16.73 92.24 17.00 93.00 17.00
C 93.54 17.00 95.58 17.30 96.00 17.00
C 97.00 15.92 97.03 14.40 97.00 13.00
C 102.25 11.87 100.55 19.60 107.00 17.00
C 108.22 22.90 104.00 25.07 99.00 26.00
C 97.16 27.33 97.01 31.98 93.00 30.00
C 91.83 22.76 84.35 25.61 80.00 28.00
C 79.03 28.10 77.98 28.00 77.00 28.00
C 76.50 28.00 76.00 28.00 76.00 28.00
C 73.43 29.47 55.54 30.83 56.00 26.00
C 55.31 26.40 54.66 31.55 51.00 29.00
C 51.00 24.67 51.00 20.33 51.00 16.00
C 54.00 16.00 57.00 16.00 60.00 16.00
C 60.81 16.17 61.10 17.01 62.00 17.00
C 63.79 16.99 67.47 14.94 70.00 16.00
C 70.11 17.00 69.53 18.73 71.00 19.00
C 71.42 18.79 74.61 18.76 75.00 19.00
C 77.97 14.35 82.97 10.60 89.00 12.00
C 89.39 13.57 88.06 16.22 90.00 17.00 Z"/>
</g>
<g fill="None" fill-opacity="0.0" stroke="#E2855C" stroke-opacity="0.74" stroke-width="0.3"><path d="
M 24.00 10.00 
C 24.50 10.00 25.72 10.25 26.00 10.00
C 25.55 8.69 26.00 6.39 26.00 5.00
C 26.00 4.50 26.00 4.00 26.00 4.00
C 22.92 3.68 21.83 8.27 24.00 10.00 Z"/>
</g>
<g fill="None" fill-opacity="0.0" stroke="#DE3E3B" stroke-opacity="0.71" stroke-width="0.3"><path d="
M 26.00 5.00 
C 26.99 6.02 27.52 8.37 27.00 10.00
C 27.36 10.29 29.51 10.00 30.00 10.00
C 30.43 7.10 29.91 3.13 26.00 4.00
C 26.00 4.00 26.00 4.50 26.00 5.00 Z"/>
</g>
<g fill="None" fill-opacity="0.0" stroke="#DE614C" stroke-opacity="1.00" stroke-width="0.3"><path d="
M 26.00 10.00 
C 26.32 9.76 27.00 10.00 27.00 10.00
C 27.52 8.37 26.99 6.02 26.00 5.00
C 26.00 6.39 25.55 8.69 26.00 10.00 Z"/>
</g>
<g fill="None" fill-opacity="0.0" stroke="#F0EAF0" stroke-opacity="0.97" stroke-width="0.3"><path d="
M 13.00 13.00 
C 12.99 13.39 14.78 14.85 14.00 16.00
C 19.28 15.38 14.99 20.46 18.00 22.00
C 19.32 22.00 20.68 22.08 22.00 22.00
C 23.97 21.08 22.67 16.41 26.00 16.00
C 30.11 15.49 29.13 19.92 30.00 22.00
C 31.65 25.96 34.19 27.23 36.00 22.00
C 36.62 20.21 35.53 17.84 36.00 16.00
C 37.33 16.00 38.67 16.00 40.00 16.00
C 40.73 12.75 38.90 10.60 36.00 10.00
C 33.47 9.60 30.00 12.22 27.00 10.00
C 27.00 10.00 26.32 9.76 26.00 10.00
C 23.03 12.20 19.42 9.66 17.00 10.00
C 15.45 10.34 13.41 11.07 13.00 13.00 Z"/>
</g>
<g fill="None" fill-opacity="0.0" stroke="#FAF2F1" stroke-opacity="0.80" stroke-width="0.3"><path d="
M 26.00 10.00 
C 25.72 10.25 24.50 10.00 24.00 10.00
C 21.84 10.00 19.10 9.54 17.00 10.00
C 19.42 9.66 23.03 12.20 26.00 10.00 Z"/>
</g>
<g fill="None" fill-opacity="0.0" stroke="#E8E1EE" stroke-opacity="0.82" stroke-width="0.3"><path d="
M 36.00 10.00 
C 34.18 9.62 31.86 10.00 30.00 10.00
C 29.51 10.00 27.36 10.29 27.00 10.00
C 30.00 12.22 33.47 9.60 36.00 10.00 Z"/>
</g>
<g fill="None" fill-opacity="0.0" stroke="#DEC28E" stroke-opacity="0.51" stroke-width="0.3"><path d="
M 75.00 19.00 
C 74.77 19.35 75.00 20.00 75.00 20.00
C 76.06 22.02 74.37 25.43 77.00 28.00
C 77.98 28.00 79.03 28.10 80.00 28.00
C 80.71 27.74 86.54 23.53 87.00 23.00
C 87.95 21.89 87.81 17.85 90.00 17.00
C 88.06 16.22 89.39 13.57 89.00 12.00
C 82.97 10.60 77.97 14.35 75.00 19.00
M 85.00 14.00 
C 83.16 18.82 80.29 14.39 85.00 14.00
M 83.00 22.00 
C 82.63 25.80 78.29 22.82 83.00 22.00 Z"/>
</g>
<g fill="None" fill-opacity="0.0" stroke="#FBF4F4" stroke-opacity="0.51" stroke-width="0.3"><path d="
M 13.00 16.00 
C 13.48 16.09 14.00 16.00 14.00 16.00
C 14.78 14.85 12.99 13.39 13.00 13.00
C 12.94 13.30 12.81 15.82 13.00 16.00 Z"/>
</g>
<g fill="None" fill-opacity="0.0" stroke="#DFC38E" stroke-opacity="0.53" stroke-width="0.3"><path d="
M 96.00 17.00 
C 95.16 17.91 94.43 19.66 93.00 18.00
C 92.79 20.10 91.85 21.85 92.00 24.00
C 92.07 24.95 93.98 27.35 93.00 29.00
C 95.77 29.92 96.90 26.81 99.00 26.00
C 104.00 25.07 108.22 22.90 107.00 17.00
C 100.55 19.60 102.25 11.87 97.00 13.00
C 97.03 14.40 97.00 15.92 96.00 17.00 Z"/>
</g>
<g fill="None" fill-opacity="0.0" stroke="#E1C790" stroke-opacity="0.29" stroke-width="0.3"><path d="
M 85.00 14.00 
C 80.29 14.39 83.16 18.82 85.00 14.00 Z"/>
</g>
<g fill="None" fill-opacity="0.0" stroke="#F3DA9F" stroke-opacity="0.91" stroke-width="0.3"><path d="
M 7.00 22.00 
C 8.35 20.65 15.65 22.00 18.00 22.00
C 14.99 20.46 19.28 15.38 14.00 16.00
C 14.00 16.00 13.48 16.09 13.00 16.00
C 6.48 14.80 7.03 17.62 7.00 22.00 Z"/>
</g>
<g fill="None" fill-opacity="0.0" stroke="#F4DCA6" stroke-opacity="1.00" stroke-width="0.3"><path d="
M 22.00 22.00 
C 23.33 21.92 24.67 22.06 26.00 22.00
C 26.00 20.00 26.00 18.00 26.00 16.00
C 22.67 16.41 23.97 21.08 22.00 22.00 Z"/>
</g>
<g fill="None" fill-opacity="0.0" stroke="#EAB552" stroke-opacity="0.96" stroke-width="0.3"><path d="
M 22.00 22.00 
C 20.68 22.08 19.32 22.00 18.00 22.00
C 15.65 22.00 8.35 20.65 7.00 22.00
C 6.99 24.01 6.97 25.88 7.00 28.00
C 11.56 24.90 21.91 30.32 27.00 28.00
C 28.27 38.71 13.36 32.25 7.00 34.00
C 6.99 35.88 5.07 37.03 7.00 39.00
C 7.49 39.05 8.00 39.00 8.00 39.00
C 12.14 41.37 21.21 40.45 26.00 40.00
C 27.76 38.85 26.62 35.63 27.00 34.00
C 32.67 34.00 38.33 34.00 44.00 34.00
C 44.24 33.95 45.88 33.12 46.00 33.00
C 46.88 30.57 46.01 30.18 46.00 28.00
C 41.79 25.01 31.74 30.24 27.00 28.00
C 27.12 25.54 25.92 21.02 30.00 22.00
C 29.13 19.92 30.11 15.49 26.00 16.00
C 26.00 18.00 26.00 20.00 26.00 22.00
C 24.67 22.06 23.33 21.92 22.00 22.00 Z"/>
</g>
<g fill="None" fill-opacity="0.0" stroke="#ECB851" stroke-opacity="0.91" stroke-width="0.3"><path d="
M 36.00 22.00 
C 38.52 20.83 43.75 23.56 46.00 22.00
C 45.97 17.38 46.50 15.03 40.00 16.00
C 38.67 16.00 37.33 16.00 36.00 16.00
C 35.53 17.84 36.62 20.21 36.00 22.00 Z"/>
</g>
<g fill="None" fill-opacity="0.0" stroke="#FEFEFE" stroke-opacity="0.63" stroke-width="0.3"><path d="
M 56.00 26.00 
C 56.20 23.88 57.91 26.95 58.00 27.00
C 61.83 26.88 58.67 17.58 60.00 16.00
C 57.00 16.00 54.00 16.00 51.00 16.00
C 51.00 20.33 51.00 24.67 51.00 29.00
C 54.66 31.55 55.31 26.40 56.00 26.00
M 55.00 21.00 
C 53.95 15.11 60.89 20.99 55.00 21.00 Z"/>
</g>
<g fill="None" fill-opacity="0.0" stroke="#EBEBEB" stroke-opacity="0.31" stroke-width="0.3"><path d="
M 58.00 27.00 
C 59.60 27.89 60.84 28.01 63.00 28.00
C 62.25 24.63 64.45 19.50 62.00 17.00
C 61.10 17.01 60.81 16.17 60.00 16.00
C 58.67 17.58 61.83 26.88 58.00 27.00 Z"/>
</g>
<g fill="None" fill-opacity="0.0" stroke="#F8F8F8" stroke-opacity="0.68" stroke-width="0.3"><path d="
M 62.00 17.00 
C 64.45 19.50 62.25 24.63 63.00 28.00
C 66.84 27.99 66.85 27.40 69.00 26.00
C 67.50 26.11 65.63 26.11 66.00 24.00
C 66.20 24.17 67.68 21.41 68.00 21.00
C 64.16 20.37 67.52 19.29 70.00 20.00
C 70.34 19.84 70.73 19.13 71.00 19.00
C 69.53 18.73 70.11 17.00 70.00 16.00
C 67.47 14.94 63.79 16.99 62.00 17.00 Z"/>
</g>
<g fill="None" fill-opacity="0.0" stroke="#E1C590" stroke-opacity="0.83" stroke-width="0.3"><path d="
M 87.00 23.00 
C 87.09 22.98 91.45 23.54 92.00 24.00
C 91.85 21.85 92.79 20.10 93.00 18.00
C 93.05 17.51 93.00 17.00 93.00 17.00
C 92.24 17.00 90.71 16.73 90.00 17.00
C 87.81 17.85 87.95 21.89 87.00 23.00
M 91.00 20.00 
C 89.48 23.88 86.69 19.93 91.00 20.00 Z"/>
</g>
<g fill="None" fill-opacity="0.0" stroke="#E4C793" stroke-opacity="0.13" stroke-width="0.3"><path d="
M 93.00 18.00 
C 94.43 19.66 95.16 17.91 96.00 17.00
C 95.58 17.30 93.54 17.00 93.00 17.00
C 93.00 17.00 93.05 17.51 93.00 18.00 Z"/>
</g>
<g fill="None" fill-opacity="0.0" stroke="#FFFFFF" stroke-opacity="0.23" stroke-width="0.3"><path d="
M 55.00 21.00 
C 60.89 20.99 53.95 15.11 55.00 21.00 Z"/>
</g>
<g fill="None" fill-opacity="0.0" stroke="#000000" stroke-opacity="0.00" stroke-width="0.3"><path d="
M 68.00 21.00 
C 67.45 21.70 70.49 19.76 70.00 20.00
C 67.52 19.29 64.16 20.37 68.00 21.00 Z"/>
</g>
<g fill="None" fill-opacity="0.0" stroke="#FEFEFE" stroke-opacity="0.31" stroke-width="0.3"><path d="
M 70.00 20.00 
C 70.49 19.76 67.45 21.70 68.00 21.00
C 67.68 21.41 66.20 24.17 66.00 24.00
C 68.73 25.01 71.30 21.86 74.00 23.00
C 74.09 21.72 74.57 21.16 75.00 20.00
C 75.00 20.00 74.77 19.35 75.00 19.00
C 74.61 18.76 71.42 18.79 71.00 19.00
C 70.73 19.13 70.34 19.84 70.00 20.00 Z"/>
</g>
<g fill="None" fill-opacity="0.0" stroke="#E3C897" stroke-opacity="0.15" stroke-width="0.3"><path d="
M 74.00 23.00 
C 73.96 23.50 74.00 24.50 74.00 25.00
C 74.00 25.50 74.00 26.00 74.00 26.00
C 74.55 26.58 75.47 27.49 76.00 28.00
C 76.00 28.00 76.50 28.00 77.00 28.00
C 74.37 25.43 76.06 22.02 75.00 20.00
C 74.57 21.16 74.09 21.72 74.00 23.00 Z"/>
</g>
<g fill="None" fill-opacity="0.0" stroke="#E2C690" stroke-opacity="0.57" stroke-width="0.3"><path d="
M 91.00 20.00 
C 86.69 19.93 89.48 23.88 91.00 20.00 Z"/>
</g>
<g fill="None" fill-opacity="0.0" stroke="#E28859" stroke-opacity="0.94" stroke-width="0.3"><path d="
M 46.00 28.00 
C 45.99 25.91 46.01 23.91 46.00 22.00
C 43.75 23.56 38.52 20.83 36.00 22.00
C 34.19 27.23 31.65 25.96 30.00 22.00
C 25.92 21.02 27.12 25.54 27.00 28.00
C 31.74 30.24 41.79 25.01 46.00 28.00 Z"/>
</g>
<g fill="None" fill-opacity="0.0" stroke="#413C31" stroke-opacity="0.05" stroke-width="0.3"><path d="
M 83.00 22.00 
C 78.29 22.82 82.63 25.80 83.00 22.00 Z"/>
</g>
<g fill="None" fill-opacity="0.0" stroke="#000000" stroke-opacity="0.00" stroke-width="0.3"><path d="
M 66.00 24.00 
C 65.63 26.11 67.50 26.11 69.00 26.00
C 70.03 25.33 70.75 25.09 72.00 25.00
C 72.50 24.96 73.84 24.77 74.00 25.00
C 74.00 24.50 73.96 23.50 74.00 23.00
C 71.30 21.86 68.73 25.01 66.00 24.00 Z"/>
</g>
<g fill="None" fill-opacity="0.0" stroke="#E5C790" stroke-opacity="0.15" stroke-width="0.3"><path d="
M 80.00 28.00 
C 84.35 25.61 91.83 22.76 93.00 30.00
C 97.01 31.98 97.16 27.33 99.00 26.00
C 96.90 26.81 95.77 29.92 93.00 29.00
C 93.98 27.35 92.07 24.95 92.00 24.00
C 91.45 23.54 87.09 22.98 87.00 23.00
C 86.54 23.53 80.71 27.74 80.00 28.00 Z"/>
</g>
<g fill="None" fill-opacity="0.0" stroke="#FEFEFE" stroke-opacity="0.11" stroke-width="0.3"><path d="
M 56.00 26.00 
C 55.54 30.83 73.43 29.47 76.00 28.00
C 75.47 27.49 74.55 26.58 74.00 26.00
C 73.27 27.11 72.65 28.36 71.00 28.00
C 70.47 26.72 71.97 26.14 72.00 25.00
C 70.75 25.09 70.03 25.33 69.00 26.00
C 66.85 27.40 66.84 27.99 63.00 28.00
C 60.84 28.01 59.60 27.89 58.00 27.00
C 57.91 26.95 56.20 23.88 56.00 26.00 Z"/>
</g>
<g fill="None" fill-opacity="0.0" stroke="#FDFDFD" stroke-opacity="0.64" stroke-width="0.3"><path d="
M 74.00 26.00 
C 74.00 26.00 74.00 25.50 74.00 25.00
C 73.84 24.77 72.50 24.96 72.00 25.00
C 71.97 26.14 70.47 26.72 71.00 28.00
C 72.65 28.36 73.27 27.11 74.00 26.00 Z"/>
</g>
<g fill="None" fill-opacity="0.0" stroke="#F3D89B" stroke-opacity="0.95" stroke-width="0.3"><path d="
M 7.00 34.00 
C 13.36 32.25 28.27 38.71 27.00 28.00
C 21.91 30.32 11.56 24.90 7.00 28.00
C 7.02 29.87 7.01 32.01 7.00 34.00 Z"/>
</g>
<g fill="None" fill-opacity="0.0" stroke="#E98F57" stroke-opacity="0.53" stroke-width="0.3"><path d="
M 44.00 34.00 
C 44.45 34.14 45.44 37.16 46.00 35.00
C 45.83 34.57 45.84 33.44 46.00 33.00
C 45.88 33.12 44.24 33.95 44.00 34.00 Z"/>
</g>
<g fill="None" fill-opacity="0.0" stroke="#E28657" stroke-opacity="0.96" stroke-width="0.3"><path d="
M 26.00 40.00 
C 31.77 39.46 37.88 39.00 44.00 39.00
C 44.50 39.00 45.00 39.00 45.00 39.00
C 45.50 39.00 46.00 39.00 46.00 39.00
C 47.61 37.61 46.43 36.12 46.00 35.00
C 45.44 37.16 44.45 34.14 44.00 34.00
C 38.33 34.00 32.67 34.00 27.00 34.00
C 26.62 35.63 27.76 38.85 26.00 40.00 Z"/>
</g>
<g fill="None" fill-opacity="0.0" stroke="#8E5E4F" stroke-opacity="0.40" stroke-width="0.3"><path d="
M 1.00 40.00 
C 3.46 39.73 6.27 40.80 8.00 39.00
C 8.00 39.00 7.49 39.05 7.00 39.00
C 5.24 38.81 2.02 38.52 1.00 40.00 Z"/>
</g>
<g fill="None" fill-opacity="0.0" stroke="#92604E" stroke-opacity="0.98" stroke-width="0.3"><path d="
M 1.00 40.00 
C -0.23 41.78 1.37 45.19 3.00 46.00
C 4.89 46.79 10.59 44.13 14.00 45.00 C 17.41 45.87 23.33 44.67 27.00 45.00
C 27.00 43.33 27.00 41.67 27.00 40.00
C 32.50 39.35 39.33 41.32 44.00 39.00
C 37.88 39.00 31.77 39.46 26.00 40.00
C 21.21 40.45 12.14 41.37 8.00 39.00
C 6.27 40.80 3.46 39.73 1.00 40.00 Z"/>
</g>
<g fill="None" fill-opacity="0.0" stroke="#714343" stroke-opacity="0.98" stroke-width="0.3"><path d="
M 27.00 45.00 
C 33.33 44.43 43.95 47.26 49.00 46.00
C 50.98 45.33 53.91 42.76 52.00 40.00
C 49.40 40.02 46.91 40.42 45.00 39.00
C 45.00 39.00 44.50 39.00 44.00 39.00
C 39.33 41.32 32.50 39.35 27.00 40.00
C 27.00 41.67 27.00 43.33 27.00 45.00 Z"/>
</g>
<g fill="None" fill-opacity="0.0" stroke="#724443" stroke-opacity="0.43" stroke-width="0.3"><path d="
M 52.00 40.00 
C 50.92 38.44 47.85 38.80 46.00 39.00
C 46.00 39.00 45.50 39.00 45.00 39.00
C 46.91 40.42 49.40 40.02 52.00 40.00 Z"/>
</g>
<g fill="None" fill-opacity="0.0" stroke="#8B5E4E" stroke-opacity="0.77" stroke-width="0.3"><path d="
M 3.00 46.00 
C 8.13 48.54 21.15 46.00 27.00 46.00
C 26.96 46.00 27.00 45.00 27.00 45.00
C 23.33 44.67 17.41 45.87 14.00 45.00 C 10.59 44.13 4.89 46.79 3.00 46.00 Z"/>
</g>
<g fill="None" fill-opacity="0.0" stroke="#724342" stroke-opacity="0.80" stroke-width="0.3"><path d="
M 27.00 46.00 
C 33.20 46.00 43.18 47.96 49.00 46.00
C 43.95 47.26 33.33 44.43 27.00 45.00
C 27.00 45.00 26.96 46.00 27.00 46.00 Z"/>
</g>
<g fill="#000000" fill-opacity="0.00" stroke="None">
<path d="
M 0.00 50.00 
L 113.00 50.00
L 113.00 0.00
L 0.00 0.00
L 0.00 50.00
M 30.00 10.00 
C 31.86 10.00 34.18 9.62 36.00 10.00
C 38.90 10.60 40.73 12.75 40.00 16.00
C 46.50 15.03 45.97 17.38 46.00 22.00
C 46.01 23.91 45.99 25.91 46.00 28.00
C 46.01 30.18 46.88 30.57 46.00 33.00
C 45.84 33.44 45.83 34.57 46.00 35.00
C 46.43 36.12 47.61 37.61 46.00 39.00
C 47.85 38.80 50.92 38.44 52.00 40.00
C 53.91 42.76 50.98 45.33 49.00 46.00
C 43.18 47.96 33.20 46.00 27.00 46.00
C 21.15 46.00 8.13 48.54 3.00 46.00
C 1.37 45.19 -0.23 41.78 1.00 40.00
C 2.02 38.52 5.24 38.81 7.00 39.00
C 5.07 37.03 6.99 35.88 7.00 34.00
C 7.01 32.01 7.02 29.87 7.00 28.00
C 6.97 25.88 6.99 24.01 7.00 22.00
C 7.03 17.62 6.48 14.80 13.00 16.00
C 12.81 15.82 12.94 13.30 13.00 13.00
C 13.41 11.07 15.45 10.34 17.00 10.00
C 19.10 9.54 21.84 10.00 24.00 10.00
C 21.83 8.27 22.92 3.68 26.00 4.00
C 29.91 3.13 30.43 7.10 30.00 10.00
M 90.00 17.00 
C 90.71 16.73 92.24 17.00 93.00 17.00
C 93.54 17.00 95.58 17.30 96.00 17.00
C 97.00 15.92 97.03 14.40 97.00 13.00
C 102.25 11.87 100.55 19.60 107.00 17.00
C 108.22 22.90 104.00 25.07 99.00 26.00
C 97.16 27.33 97.01 31.98 93.00 30.00
C 91.83 22.76 84.35 25.61 80.00 28.00
C 79.03 28.10 77.98 28.00 77.00 28.00
C 76.50 28.00 76.00 28.00 76.00 28.00
C 73.43 29.47 55.54 30.83 56.00 26.00
C 55.31 26.40 54.66 31.55 51.00 29.00
C 51.00 24.67 51.00 20.33 51.00 16.00
C 54.00 16.00 57.00 16.00 60.00 16.00
C 60.81 16.17 61.10 17.01 62.00 17.00
C 63.79 16.99 67.47 14.94 70.00 16.00
C 70.11 17.00 69.53 18.73 71.00 19.00
C 71.42 18.79 74.61 18.76 75.00 19.00
C 77.97 14.35 82.97 10.60 89.00 12.00
C 89.39 13.57 88.06 16.22 90.00 17.00 Z"/>
</g>
<g fill="#E2855C" fill-opacity="0.74" stroke="None">
<path d="
M 24.00 10.00 
C 24.50 10.00 25.72 10.25 26.00 10.00
C 25.55 8.69 26.00 6.39 26.00 5.00
C 26.00 4.50 26.00 4.00 26.00 4.00
C 22.92 3.68 21.83 8.27 24.00 10.00 Z"/>
</g>
<g fill="#DE3E3B" fill-opacity="0.71" stroke="None">
<path d="
M 26.00 5.00 
C 26.99 6.02 27.52 8.37 27.00 10.00
C 27.36 10.29 29.51 10.00 30.00 10.00
C 30.43 7.10 29.91 3.13 26.00 4.00
C 26.00 4.00 26.00 4.50 26.00 5.00 Z"/>
</g>
<g fill="#DE614C" fill-opacity="1.00" stroke="None">
<path d="
M 26.00 10.00 
C 26.32 9.76 27.00 10.00 27.00 10.00
C 27.52 8.37 26.99 6.02 26.00 5.00
C 26.00 6.39 25.55 8.69 26.00 10.00 Z"/>
</g>
<g fill="#F0EAF0" fill-opacity="0.97" stroke="None">
<path d="
M 13.00 13.00 
C 12.99 13.39 14.78 14.85 14.00 16.00
C 19.28 15.38 14.99 20.46 18.00 22.00
C 19.32 22.00 20.68 22.08 22.00 22.00
C 23.97 21.08 22.67 16.41 26.00 16.00
C 30.11 15.49 29.13 19.92 30.00 22.00
C 31.65 25.96 34.19 27.23 36.00 22.00
C 36.62 20.21 35.53 17.84 36.00 16.00
C 37.33 16.00 38.67 16.00 40.00 16.00
C 40.73 12.75 38.90 10.60 36.00 10.00
C 33.47 9.60 30.00 12.22 27.00 10.00
C 27.00 10.00 26.32 9.76 26.00 10.00
C 23.03 12.20 19.42 9.66 17.00 10.00
C 15.45 10.34 13.41 11.07 13.00 13.00 Z"/>
</g>
<g fill="#FAF2F1" fill-opacity="0.80" stroke="None">
<path d="
M 26.00 10.00 
C 25.72 10.25 24.50 10.00 24.00 10.00
C 21.84 10.00 19.10 9.54 17.00 10.00
C 19.42 9.66 23.03 12.20 26.00 10.00 Z"/>
</g>
<g fill="#E8E1EE" fill-opacity="0.82" stroke="None">
<path d="
M 36.00 10.00 
C 34.18 9.62 31.86 10.00 30.00 10.00
C 29.51 10.00 27.36 10.29 27.00 10.00
C 30.00 12.22 33.47 9.60 36.00 10.00 Z"/>
</g>
<g fill="#DEC28E" fill-opacity="0.51" stroke="None">
<path d="
M 75.00 19.00 
C 74.77 19.35 75.00 20.00 75.00 20.00
C 76.06 22.02 74.37 25.43 77.00 28.00
C 77.98 28.00 79.03 28.10 80.00 28.00
C 80.71 27.74 86.54 23.53 87.00 23.00
C 87.95 21.89 87.81 17.85 90.00 17.00
C 88.06 16.22 89.39 13.57 89.00 12.00
C 82.97 10.60 77.97 14.35 75.00 19.00
M 85.00 14.00 
C 83.16 18.82 80.29 14.39 85.00 14.00
M 83.00 22.00 
C 82.63 25.80 78.29 22.82 83.00 22.00 Z"/>
</g>
<g fill="#FBF4F4" fill-opacity="0.51" stroke="None">
<path d="
M 13.00 16.00 
C 13.48 16.09 14.00 16.00 14.00 16.00
C 14.78 14.85 12.99 13.39 13.00 13.00
C 12.94 13.30 12.81 15.82 13.00 16.00 Z"/>
</g>
<g fill="#DFC38E" fill-opacity="0.53" stroke="None">
<path d="
M 96.00 17.00 
C 95.16 17.91 94.43 19.66 93.00 18.00
C 92.79 20.10 91.85 21.85 92.00 24.00
C 92.07 24.95 93.98 27.35 93.00 29.00
C 95.77 29.92 96.90 26.81 99.00 26.00
C 104.00 25.07 108.22 22.90 107.00 17.00
C 100.55 19.60 102.25 11.87 97.00 13.00
C 97.03 14.40 97.00 15.92 96.00 17.00 Z"/>
</g>
<g fill="#E1C790" fill-opacity="0.29" stroke="None">
<path d="
M 85.00 14.00 
C 80.29 14.39 83.16 18.82 85.00 14.00 Z"/>
</g>
<g fill="#F3DA9F" fill-opacity="0.91" stroke="None">
<path d="
M 7.00 22.00 
C 8.35 20.65 15.65 22.00 18.00 22.00
C 14.99 20.46 19.28 15.38 14.00 16.00
C 14.00 16.00 13.48 16.09 13.00 16.00
C 6.48 14.80 7.03 17.62 7.00 22.00 Z"/>
</g>
<g fill="#F4DCA6" fill-opacity="1.00" stroke="None">
<path d="
M 22.00 22.00 
C 23.33 21.92 24.67 22.06 26.00 22.00
C 26.00 20.00 26.00 18.00 26.00 16.00
C 22.67 16.41 23.97 21.08 22.00 22.00 Z"/>
</g>
<g fill="#EAB552" fill-opacity="0.96" stroke="None">
<path d="
M 22.00 22.00 
C 20.68 22.08 19.32 22.00 18.00 22.00
C 15.65 22.00 8.35 20.65 7.00 22.00
C 6.99 24.01 6.97 25.88 7.00 28.00
C 11.56 24.90 21.91 30.32 27.00 28.00
C 28.27 38.71 13.36 32.25 7.00 34.00
C 6.99 35.88 5.07 37.03 7.00 39.00
C 7.49 39.05 8.00 39.00 8.00 39.00
C 12.14 41.37 21.21 40.45 26.00 40.00
C 27.76 38.85 26.62 35.63 27.00 34.00
C 32.67 34.00 38.33 34.00 44.00 34.00
C 44.24 33.95 45.88 33.12 46.00 33.00
C 46.88 30.57 46.01 30.18 46.00 28.00
C 41.79 25.01 31.74 30.24 27.00 28.00
C 27.12 25.54 25.92 21.02 30.00 22.00
C 29.13 19.92 30.11 15.49 26.00 16.00
C 26.00 18.00 26.00 20.00 26.00 22.00
C 24.67 22.06 23.33 21.92 22.00 22.00 Z"/>
</g>
<g fill="#ECB851" fill-opacity="0.91" stroke="None">
<path d="
M 36.00 22.00 
C 38.52 20.83 43.75 23.56 46.00 22.00
C 45.97 17.38 46.50 15.03 40.00 16.00
C 38.67 16.00 37.33 16.00 36.00 16.00
C 35.53 17.84 36.62 20.21 36.00 22.00 Z"/>
</g>
<g fill="#FEFEFE" fill-opacity="0.63" stroke="None">
<path d="
M 56.00 26.00 
C 56.20 23.88 57.91 26.95 58.00 27.00
C 61.83 26.88 58.67 17.58 60.00 16.00
C 57.00 16.00 54.00 16.00 51.00 16.00
C 51.00 20.33 51.00 24.67 51.00 29.00
C 54.66 31.55 55.31 26.40 56.00 26.00
M 55.00 21.00 
C 53.95 15.11 60.89 20.99 55.00 21.00 Z"/>
</g>
<g fill="#EBEBEB" fill-opacity="0.31" stroke="None">
<path d="
M 58.00 27.00 
C 59.60 27.89 60.84 28.01 63.00 28.00
C 62.25 24.63 64.45 19.50 62.00 17.00
C 61.10 17.01 60.81 16.17 60.00 16.00
C 58.67 17.58 61.83 26.88 58.00 27.00 Z"/>
</g>
<g fill="#F8F8F8" fill-opacity="0.68" stroke="None">
<path d="
M 62.00 17.00 
C 64.45 19.50 62.25 24.63 63.00 28.00
C 66.84 27.99 66.85 27.40 69.00 26.00
C 67.50 26.11 65.63 26.11 66.00 24.00
C 66.20 24.17 67.68 21.41 68.00 21.00
C 64.16 20.37 67.52 19.29 70.00 20.00
C 70.34 19.84 70.73 19.13 71.00 19.00
C 69.53 18.73 70.11 17.00 70.00 16.00
C 67.47 14.94 63.79 16.99 62.00 17.00 Z"/>
</g>
<g fill="#E1C590" fill-opacity="0.83" stroke="None">
<path d="
M 87.00 23.00 
C 87.09 22.98 91.45 23.54 92.00 24.00
C 91.85 21.85 92.79 20.10 93.00 18.00
C 93.05 17.51 93.00 17.00 93.00 17.00
C 92.24 17.00 90.71 16.73 90.00 17.00
C 87.81 17.85 87.95 21.89 87.00 23.00
M 91.00 20.00 
C 89.48 23.88 86.69 19.93 91.00 20.00 Z"/>
</g>
<g fill="#E4C793" fill-opacity="0.13" stroke="None">
<path d="
M 93.00 18.00 
C 94.43 19.66 95.16 17.91 96.00 17.00
C 95.58 17.30 93.54 17.00 93.00 17.00
C 93.00 17.00 93.05 17.51 93.00 18.00 Z"/>
</g>
<g fill="#FFFFFF" fill-opacity="0.23" stroke="None">
<path d="
M 55.00 21.00 
C 60.89 20.99 53.95 15.11 55.00 21.00 Z"/>
</g>
<g fill="#000000" fill-opacity="0.00" stroke="None">
<path d="
M 68.00 21.00 
C 67.45 21.70 70.49 19.76 70.00 20.00
C 67.52 19.29 64.16 20.37 68.00 21.00 Z"/>
</g>
<g fill="#FEFEFE" fill-opacity="0.31" stroke="None">
<path d="
M 70.00 20.00 
C 70.49 19.76 67.45 21.70 68.00 21.00
C 67.68 21.41 66.20 24.17 66.00 24.00
C 68.73 25.01 71.30 21.86 74.00 23.00
C 74.09 21.72 74.57 21.16 75.00 20.00
C 75.00 20.00 74.77 19.35 75.00 19.00
C 74.61 18.76 71.42 18.79 71.00 19.00
C 70.73 19.13 70.34 19.84 70.00 20.00 Z"/>
</g>
<g fill="#E3C897" fill-opacity="0.15" stroke="None">
<path d="
M 74.00 23.00 
C 73.96 23.50 74.00 24.50 74.00 25.00
C 74.00 25.50 74.00 26.00 74.00 26.00
C 74.55 26.58 75.47 27.49 76.00 28.00
C 76.00 28.00 76.50 28.00 77.00 28.00
C 74.37 25.43 76.06 22.02 75.00 20.00
C 74.57 21.16 74.09 21.72 74.00 23.00 Z"/>
</g>
<g fill="#E2C690" fill-opacity="0.57" stroke="None">
<path d="
M 91.00 20.00 
C 86.69 19.93 89.48 23.88 91.00 20.00 Z"/>
</g>
<g fill="#E28859" fill-opacity="0.94" stroke="None">
<path d="
M 46.00 28.00 
C 45.99 25.91 46.01 23.91 46.00 22.00
C 43.75 23.56 38.52 20.83 36.00 22.00
C 34.19 27.23 31.65 25.96 30.00 22.00
C 25.92 21.02 27.12 25.54 27.00 28.00
C 31.74 30.24 41.79 25.01 46.00 28.00 Z"/>
</g>
<g fill="#413C31" fill-opacity="0.05" stroke="None">
<path d="
M 83.00 22.00 
C 78.29 22.82 82.63 25.80 83.00 22.00 Z"/>
</g>
<g fill="#000000" fill-opacity="0.00" stroke="None">
<path d="
M 66.00 24.00 
C 65.63 26.11 67.50 26.11 69.00 26.00
C 70.03 25.33 70.75 25.09 72.00 25.00
C 72.50 24.96 73.84 24.77 74.00 25.00
C 74.00 24.50 73.96 23.50 74.00 23.00
C 71.30 21.86 68.73 25.01 66.00 24.00 Z"/>
</g>
<g fill="#E5C790" fill-opacity="0.15" stroke="None">
<path d="
M 80.00 28.00 
C 84.35 25.61 91.83 22.76 93.00 30.00
C 97.01 31.98 97.16 27.33 99.00 26.00
C 96.90 26.81 95.77 29.92 93.00 29.00
C 93.98 27.35 92.07 24.95 92.00 24.00
C 91.45 23.54 87.09 22.98 87.00 23.00
C 86.54 23.53 80.71 27.74 80.00 28.00 Z"/>
</g>
<g fill="#FEFEFE" fill-opacity="0.11" stroke="None">
<path d="
M 56.00 26.00 
C 55.54 30.83 73.43 29.47 76.00 28.00
C 75.47 27.49 74.55 26.58 74.00 26.00
C 73.27 27.11 72.65 28.36 71.00 28.00
C 70.47 26.72 71.97 26.14 72.00 25.00
C 70.75 25.09 70.03 25.33 69.00 26.00
C 66.85 27.40 66.84 27.99 63.00 28.00
C 60.84 28.01 59.60 27.89 58.00 27.00
C 57.91 26.95 56.20 23.88 56.00 26.00 Z"/>
</g>
<g fill="#FDFDFD" fill-opacity="0.64" stroke="None">
<path d="
M 74.00 26.00 
C 74.00 26.00 74.00 25.50 74.00 25.00
C 73.84 24.77 72.50 24.96 72.00 25.00
C 71.97 26.14 70.47 26.72 71.00 28.00
C 72.65 28.36 73.27 27.11 74.00 26.00 Z"/>
</g>
<g fill="#F3D89B" fill-opacity="0.95" stroke="None">
<path d="
M 7.00 34.00 
C 13.36 32.25 28.27 38.71 27.00 28.00
C 21.91 30.32 11.56 24.90 7.00 28.00
C 7.02 29.87 7.01 32.01 7.00 34.00 Z"/>
</g>
<g fill="#E98F57" fill-opacity="0.53" stroke="None">
<path d="
M 44.00 34.00 
C 44.45 34.14 45.44 37.16 46.00 35.00
C 45.83 34.57 45.84 33.44 46.00 33.00
C 45.88 33.12 44.24 33.95 44.00 34.00 Z"/>
</g>
<g fill="#E28657" fill-opacity="0.96" stroke="None">
<path d="
M 26.00 40.00 
C 31.77 39.46 37.88 39.00 44.00 39.00
C 44.50 39.00 45.00 39.00 45.00 39.00
C 45.50 39.00 46.00 39.00 46.00 39.00
C 47.61 37.61 46.43 36.12 46.00 35.00
C 45.44 37.16 44.45 34.14 44.00 34.00
C 38.33 34.00 32.67 34.00 27.00 34.00
C 26.62 35.63 27.76 38.85 26.00 40.00 Z"/>
</g>
<g fill="#8E5E4F" fill-opacity="0.40" stroke="None">
<path d="
M 1.00 40.00 
C 3.46 39.73 6.27 40.80 8.00 39.00
C 8.00 39.00 7.49 39.05 7.00 39.00
C 5.24 38.81 2.02 38.52 1.00 40.00 Z"/>
</g>
<g fill="#92604E" fill-opacity="0.98" stroke="None">
<path d="
M 1.00 40.00 
C -0.23 41.78 1.37 45.19 3.00 46.00
C 4.89 46.79 10.59 44.13 14.00 45.00 C 17.41 45.87 23.33 44.67 27.00 45.00
C 27.00 43.33 27.00 41.67 27.00 40.00
C 32.50 39.35 39.33 41.32 44.00 39.00
C 37.88 39.00 31.77 39.46 26.00 40.00
C 21.21 40.45 12.14 41.37 8.00 39.00
C 6.27 40.80 3.46 39.73 1.00 40.00 Z"/>
</g>
<g fill="#714343" fill-opacity="0.98" stroke="None">
<path d="
M 27.00 45.00 
C 33.33 44.43 43.95 47.26 49.00 46.00
C 50.98 45.33 53.91 42.76 52.00 40.00
C 49.40 40.02 46.91 40.42 45.00 39.00
C 45.00 39.00 44.50 39.00 44.00 39.00
C 39.33 41.32 32.50 39.35 27.00 40.00
C 27.00 41.67 27.00 43.33 27.00 45.00 Z"/>
</g>
<g fill="#724443" fill-opacity="0.43" stroke="None">
<path d="
M 52.00 40.00 
C 50.92 38.44 47.85 38.80 46.00 39.00
C 46.00 39.00 45.50 39.00 45.00 39.00
C 46.91 40.42 49.40 40.02 52.00 40.00 Z"/>
</g>
<g fill="#8B5E4E" fill-opacity="0.77" stroke="None">
<path d="
M 3.00 46.00 
C 8.13 48.54 21.15 46.00 27.00 46.00
C 26.96 46.00 27.00 45.00 27.00 45.00
C 23.33 44.67 17.41 45.87 14.00 45.00 C 10.59 44.13 4.89 46.79 3.00 46.00 Z"/>
</g>
<g fill="#724342" fill-opacity="0.80" stroke="None">
<path d="
M 27.00 46.00 
C 33.20 46.00 43.18 47.96 49.00 46.00
C 43.95 47.26 33.33 44.43 27.00 45.00
C 27.00 45.00 26.96 46.00 27.00 46.00 Z"/>
</g>
</svg>