<?xml version="1.0" encoding="UTF-8"?>
<svg version="1.1" xmlns="http://www.w3.org/2000/svg" width="512" height="512">
<path d="M0 0 C7.62630526 5.47502028 13.17086811 11.57165655 15 21 C15.77578452 31.81011223 15.15245005 40.89310504 8.375 49.75 C5.79377251 52.49054103 3.03359988 54.30827283 -0.2109375 56.203125 C-1.1086084 56.73067383 -2.0062793 57.25822266 -2.93115234 57.80175781 C-3.61387207 58.19717773 -4.2965918 58.59259766 -5 59 C-3.9514534 59.00142502 -2.9029068 59.00285004 -1.82258606 59.00431824 C8.10697129 59.02105962 18.03612256 59.06404997 27.96546459 59.13209057 C33.06907602 59.16623692 38.17239203 59.19145124 43.27612305 59.19555664 C48.21068754 59.19986621 53.14458699 59.22854743 58.07894325 59.27343178 C59.95214258 59.28632234 61.82542184 59.29074475 63.6986599 59.28615379 C78.66366944 59.25804559 90.59627447 60.59535877 101.84375 71.60546875 C109.89123153 80.5422553 113.90115844 90.13359469 114.31640625 102.17578125 C114.35830078 103.33271484 114.40019531 104.48964844 114.44335938 105.68164062 C114.48267578 106.87982422 114.52199219 108.07800781 114.5625 109.3125 C114.60568359 110.53001953 114.64886719 111.74753906 114.69335938 113.00195312 C114.79921496 116.0011947 114.90129726 119.00051591 115 122 C116.23975586 121.99887207 117.47951172 121.99774414 118.75683594 121.99658203 C123.40914312 122.00028619 128.06043327 122.04337951 132.71240234 122.09765625 C134.71591589 122.11569141 136.71955252 122.1234077 138.72314453 122.12011719 C162.18718623 122.09671166 162.18718623 122.09671166 171.96923828 130.73999023 C173.57704245 132.39164361 174.77366856 134.05086393 176 136 C176.61488281 136.8971875 176.61488281 136.8971875 177.2421875 137.8125 C181.83992526 145.92988529 181.30967311 157.30607358 179.26953125 166.17578125 C175.49001168 176.34191756 168.44964936 181.36988227 159 186 C159.6290625 186.25652344 160.258125 186.51304687 160.90625 186.77734375 C169.00931385 190.40175635 175.21100175 195.3866978 178.6953125 203.734375 C180.23988478 208.15149073 180.5004564 212.28665774 180.4375 216.9375 C180.42920166 217.72946777 180.42090332 218.52143555 180.41235352 219.33740234 C180.23999596 225.2907918 179.47558711 230.02898223 176 235 C175.27103516 236.05574219 175.27103516 236.05574219 174.52734375 237.1328125 C170.26472572 242.59460676 165.32755236 245.35184931 159 248 C159.59167969 248.31453125 160.18335938 248.6290625 160.79296875 248.953125 C169.49960818 253.66862955 174.47025998 258.05519692 179 267 C181.62439997 275.97694099 181.43425781 287.28877869 177.4375 295.75 C173.40396478 302.61175521 168.38881854 306.97730151 161 310 C160.01 310 159.02 310 158 310 C158 310.66 158 311.32 158 312 C158.825 312.04125 159.65 312.0825 160.5 312.125 C167.01572476 313.75393119 172.35996457 318.40994559 176 324 C176.37125 324.55429687 176.7425 325.10859375 177.125 325.6796875 C181.7529349 333.93926575 181.38431131 345.19436788 179.234375 354.2109375 C176.69609686 360.919244 173.35140636 365.20427852 167.35546875 369.140625 C166.54102295 369.67719727 165.72657715 370.21376953 164.88745117 370.76660156 C164.26459229 371.17362305 163.6417334 371.58064453 163 372 C163.87839035 372.00142502 164.7567807 372.00285004 165.66178894 372.00431824 C173.94568609 372.02215841 182.22904956 372.06380182 190.51269054 372.13209057 C194.77130849 372.1663607 199.02956771 372.19147052 203.28833008 372.19555664 C207.39947109 372.19983966 211.50980288 372.22830144 215.6206913 372.27343178 C217.18789262 372.28640689 218.75519079 372.29071437 220.32243919 372.28615379 C222.52077638 372.2812473 224.71674877 372.30733534 226.91479492 372.34057617 C228.16499924 372.34723801 229.41520355 372.35389984 230.70329285 372.36076355 C234.90471253 373.17542511 236.39556507 374.66448697 239 378 C239.4893122 380.80810309 239.68125584 382.99585436 239.62890625 385.79296875 C239.63131821 386.53903885 239.63373016 387.28510895 239.63621521 388.05378723 C239.63523843 389.62974366 239.62188475 391.2057351 239.59692383 392.78149414 C239.56284345 395.16349517 239.57621212 397.54173174 239.59570312 399.92382812 C239.58444404 411.93420604 237.67328734 422.03760308 229 431 C217.88753652 440.24640829 206.43499123 440.43725735 192.6802063 440.38768005 C190.79936622 440.39185524 188.91852866 440.39733377 187.03769577 440.40399987 C181.88009867 440.41844895 176.72266144 440.41421138 171.56505561 440.40683305 C165.99847397 440.40210238 160.43192698 440.41461036 154.86535645 440.42485046 C143.96413724 440.44204578 133.06297565 440.44287694 122.1617464 440.43763756 C113.30096946 440.43359597 104.44020956 440.43503929 95.57943344 440.44038582 C93.68767939 440.44150845 93.68767939 440.44150845 91.7577081 440.44265376 C89.19563294 440.44418524 86.63355779 440.44572359 84.07148264 440.44726873 C66.86955267 440.45709728 49.66763087 440.46126147 32.46570015 440.45364285 C31.79328742 440.45334567 31.12087469 440.4530485 30.42808581 440.45274232 C24.9679062 440.45029348 19.50772666 440.44768184 14.04754712 440.44505819 C-7.24844255 440.43495668 -28.54435336 440.44331038 -49.84033203 440.46655273 C-73.77757684 440.49263561 -97.71476782 440.50542099 -121.65203202 440.49836498 C-134.32228488 440.49487146 -146.992473 440.49711365 -159.66271591 440.51461601 C-170.44869092 440.52933072 -181.23455559 440.52998292 -192.02052842 440.5125451 C-197.52264681 440.50402677 -203.02456802 440.5019061 -208.52667618 440.51719666 C-213.56634029 440.53102858 -218.60563801 440.52629957 -223.64528085 440.50695742 C-225.46551745 440.50319255 -227.28578328 440.5061334 -229.10599385 440.51656907 C-243.16711541 440.5914333 -254.37435682 439.13292183 -265 429 C-273.28116156 420.03564261 -273.5343294 409.20361145 -273.50097656 397.64208984 C-273.49999619 395.2406713 -273.54188309 392.84237163 -273.5859375 390.44140625 C-273.59114005 388.90365243 -273.59383277 387.36588762 -273.59375 385.828125 C-273.6183429 384.76081146 -273.6183429 384.76081146 -273.64343262 383.67193604 C-273.59284694 380.02265053 -273.16753869 378.2147485 -270.90437317 375.31385803 C-267.30293191 372.44465931 -265.47828752 372.36489318 -260.91479492 372.34057617 C-260.22156128 372.33009247 -259.52832764 372.31960876 -258.81408691 372.30880737 C-256.53575439 372.28013691 -254.25894875 372.28633855 -251.98046875 372.29296875 C-250.39575809 372.27984868 -248.81106414 372.26454349 -247.22639465 372.24714661 C-243.06543139 372.20731907 -238.9049058 372.19710768 -234.74377441 372.19311523 C-230.49376162 372.18377945 -226.24400552 372.1463632 -221.99414062 372.11132812 C-213.66275567 372.04677527 -205.33162335 372.01351645 -197 372 C-197.6250795 371.59406616 -198.250159 371.18813232 -198.8941803 370.76989746 C-199.71035324 370.23417114 -200.52652618 369.69844482 -201.36743164 369.14648438 C-202.17813614 368.61680054 -202.98884064 368.0871167 -203.82411194 367.54138184 C-206.29328797 365.79223713 -207.86183035 364.08091883 -209.4375 361.5 C-210.11619141 360.43265625 -210.11619141 360.43265625 -210.80859375 359.34375 C-215.25519165 350.59634429 -215.49252231 339.62250917 -213.34765625 330.10546875 C-210.14948554 322.26789161 -204.44136064 316.14079134 -196.796875 312.59375 C-195 312 -195 312 -192 312 C-192 311.34 -192 310.68 -192 310 C-192.804375 309.979375 -193.60875 309.95875 -194.4375 309.9375 C-201.75655105 308.01143393 -206.62953576 303.10463239 -210.5 296.75 C-215.14480381 288.44096207 -214.96821376 279.33060766 -214 270 C-212.86897398 266.17713206 -211.32054592 263.2218594 -209 260 C-208.401875 259.071875 -207.80375 258.14375 -207.1875 257.1875 C-203.12533464 253.12533464 -198.1283366 250.5069324 -193 248 C-193.6290625 247.74347656 -194.258125 247.48695313 -194.90625 247.22265625 C-203.00931385 243.59824365 -209.21100175 238.6133022 -212.6953125 230.265625 C-214.23988478 225.84850927 -214.5004564 221.71334226 -214.4375 217.0625 C-214.42920166 216.27053223 -214.42090332 215.47856445 -214.41235352 214.66259766 C-214.23999596 208.7092082 -213.47558711 203.97101777 -210 199 C-209.51402344 198.29617187 -209.02804688 197.59234375 -208.52734375 196.8671875 C-204.26472572 191.40539324 -199.32755236 188.64815069 -193 186 C-193.59167969 185.68546875 -194.18335938 185.3709375 -194.79296875 185.046875 C-203.49960818 180.33137045 -208.47025998 175.94480308 -213 167 C-215.62439997 158.02305901 -215.43425781 146.71122131 -211.4375 138.25 C-206.7639954 130.34435203 -200.69540115 125.85596876 -192 123 C-188.4808454 122.51006895 -185.04357853 122.52942004 -181.49609375 122.609375 C-180.05025658 122.61786469 -180.05025658 122.61786469 -178.57521057 122.62652588 C-175.52877879 122.64872593 -172.48356984 122.69889064 -169.4375 122.75 C-167.35874107 122.77008619 -165.27996351 122.78833323 -163.20117188 122.8046875 C-158.13365108 122.8485369 -153.06703209 122.91744919 -148 123 C-148.04203552 122.33524155 -148.08407104 121.67048309 -148.12738037 120.98558044 C-149.26525134 102.76326312 -150.19040524 87.40756065 -137.75 72.6875 C-133.63002306 68.32838675 -129.50834579 65.34303633 -124 63 C-122.21988525 62.23885139 -122.21988525 62.23885139 -120.40380859 61.46232605 C-115.91079079 59.79344836 -111.86229037 59.55892807 -107.10546875 59.56762695 C-106.2557399 59.5574353 -105.40601105 59.54724365 -104.53053284 59.53674316 C-101.74945331 59.50678672 -98.96871918 59.49737395 -96.1875 59.48828125 C-94.24836091 59.47142168 -92.30923266 59.45326972 -90.37011719 59.43388367 C-85.28704212 59.38651639 -80.20401104 59.35662128 -75.12078857 59.33044434 C-69.92548948 59.3005717 -64.73034171 59.25406445 -59.53515625 59.20898438 C-49.35685021 59.12310233 -39.1785129 59.05569003 -29 59 C-29.69400406 58.59325043 -30.38800812 58.18650085 -31.1030426 57.76742554 C-32.0094902 57.23106476 -32.91593781 56.69470398 -33.84985352 56.14208984 C-34.75010757 55.61159027 -35.65036163 55.0810907 -36.57789612 54.53451538 C-42.19288579 50.97715846 -46.53331652 44.76307337 -48.5625 38.421875 C-50.26991867 28.9700931 -50.00848534 19.36224986 -45 11 C-34.62345422 -3.86867067 -16.22266187 -8.83365384 0 0 Z " fill="#E28658" transform="translate(273,38)"/>
<path d="M0 0 C7.62630526 5.47502028 13.17086811 11.57165655 15 21 C15.77578452 31.81011223 15.15245005 40.89310504 8.375 49.75 C5.79377251 52.49054103 3.03359988 54.30827283 -0.2109375 56.203125 C-1.1086084 56.73067383 -2.0062793 57.25822266 -2.93115234 57.80175781 C-3.61387207 58.19717773 -4.2965918 58.59259766 -5 59 C-3.4271801 59.00213753 -3.4271801 59.00213753 -1.82258606 59.00431824 C8.10697129 59.02105962 18.03612256 59.06404997 27.96546459 59.13209057 C33.06907602 59.16623692 38.17239203 59.19145124 43.27612305 59.19555664 C48.21068754 59.19986621 53.14458699 59.22854743 58.07894325 59.27343178 C59.95214258 59.28632234 61.82542184 59.29074475 63.6986599 59.28615379 C78.66366944 59.25804559 90.59627447 60.59535877 101.84375 71.60546875 C109.96412645 80.62320565 113.91363405 90.25382648 114.31640625 102.39453125 C114.35451416 103.47839111 114.39262207 104.56225098 114.43188477 105.67895508 C114.47498779 107.0430249 114.51809082 108.40709473 114.5625 109.8125 C114.706875 114.164375 114.85125 118.51625 115 123 C102.79 123 90.58 123 78 123 C78.03480469 128.29804688 78.06960938 133.59609375 78.10546875 139.0546875 C78.12081175 142.42709447 78.13525463 145.79945793 78.14648438 149.171875 C78.16436248 154.5153913 78.18542784 159.85875221 78.22631836 165.20214844 C78.25910527 169.51397522 78.27689346 173.82563516 78.28463173 178.13757706 C78.29014075 179.77607979 78.30089785 181.41457422 78.31719017 183.05300522 C78.43189687 195.07528168 78.05007047 205.37385874 70.02734375 214.95703125 C63.27706288 221.75933741 55.80794925 225.26702638 46.1875 225.375 C36.35529424 225.20957908 29.22635314 221.5622244 22 215 C14.6120552 207.18988692 13.56163107 197.15296491 13.59375 186.83984375 C13.58291382 185.80992813 13.57207764 184.78001251 13.56091309 183.71888733 C13.51546627 179.35845132 13.50360929 174.99808119 13.48876953 170.63745117 C13.47299424 167.43387243 13.43998601 164.2307758 13.40625 161.02734375 C13.40927124 160.05522446 13.41229248 159.08310516 13.41540527 158.08152771 C13.30785708 148.21028573 10.65968574 139.47458399 4 132 C-2.85176595 126.37433954 -7.81524504 125.66995545 -17 124 C-17 144.46 -17 164.92 -17 186 C-38.875 186.1875 -38.875 186.1875 -45.71826172 186.20776367 C-47.53876592 186.23424517 -49.35924516 186.26253022 -51.1796875 186.29296875 C-52.10015869 186.28898071 -53.02062988 186.28499268 -53.96899414 186.28088379 C-60.16704857 186.41469609 -64.48916167 187.80003128 -69.89993286 190.83345032 C-76.12715036 194.29255811 -84.23940033 194.04268926 -90.97265625 192.17578125 C-94.61144616 190.7341988 -97.73794677 189.17470215 -101 187 C-103.8467459 186.80698797 -106.59663377 186.73022416 -109.44360352 186.74462891 C-110.30580002 186.74100845 -111.16799652 186.737388 -112.05632019 186.73365784 C-113.93059289 186.72676032 -115.8048857 186.72425906 -117.67917061 186.72560501 C-120.65213192 186.72657004 -123.62473141 186.71362826 -126.59764099 186.69662476 C-135.0511489 186.6503621 -143.50462187 186.62577092 -151.95825195 186.61914062 C-157.12955585 186.61410665 -162.30048563 186.58975467 -167.47166252 186.55381393 C-169.43667281 186.54405325 -171.40173484 186.54166348 -173.36676216 186.54698563 C-185.02034318 186.57704986 -194.22320335 186.43098243 -204.25 179.875 C-212.96520995 170.76364414 -214.65226166 161.83594932 -214.40625 149.640625 C-213.9518935 141.67640462 -210.4693214 134.95760712 -204.6875 129.5 C-197.24515861 124.15914629 -190.58576467 122.40450751 -181.49609375 122.609375 C-180.05025658 122.61786469 -180.05025658 122.61786469 -178.57521057 122.62652588 C-175.52877879 122.64872593 -172.48356984 122.69889064 -169.4375 122.75 C-167.35874107 122.77008619 -165.27996351 122.78833323 -163.20117188 122.8046875 C-158.13365108 122.8485369 -153.06703209 122.91744919 -148 123 C-148.04203552 122.33524155 -148.08407104 121.67048309 -148.12738037 120.98558044 C-149.26525134 102.76326312 -150.19040524 87.40756065 -137.75 72.6875 C-133.63002306 68.32838675 -129.50834579 65.34303633 -124 63 C-122.81325684 62.4925676 -121.62651367 61.98513519 -120.40380859 61.46232605 C-115.91079079 59.79344836 -111.86229037 59.55892807 -107.10546875 59.56762695 C-106.2557399 59.5574353 -105.40601105 59.54724365 -104.53053284 59.53674316 C-101.74945331 59.50678672 -98.96871918 59.49737395 -96.1875 59.48828125 C-94.24836091 59.47142168 -92.30923266 59.45326972 -90.37011719 59.43388367 C-85.28704212 59.38651639 -80.20401104 59.35662128 -75.12078857 59.33044434 C-69.92548948 59.3005717 -64.73034171 59.25406445 -59.53515625 59.20898438 C-49.35685021 59.12310233 -39.1785129 59.05569003 -29 59 C-29.69400406 58.59325043 -30.38800812 58.18650085 -31.1030426 57.76742554 C-32.0094902 57.23106476 -32.91593781 56.69470398 -33.84985352 56.14208984 C-34.75010757 55.61159027 -35.65036163 55.0810907 -36.57789612 54.53451538 C-42.19288579 50.97715846 -46.53331652 44.76307337 -48.5625 38.421875 C-50.26991867 28.9700931 -50.00848534 19.36224986 -45 11 C-34.62345422 -3.86867067 -16.22266187 -8.83365384 0 0 Z " fill="#E9E3EF" transform="translate(273,38)"/>
<path d="M0 0 C0.85183483 -0.0072672 1.70366966 -0.01453441 2.58131766 -0.02202183 C5.44942188 -0.04033911 8.31620012 -0.02288532 11.18429565 -0.00571251 C13.25570423 -0.01147103 15.3271077 -0.01941033 17.39850044 -0.02934873 C23.10127895 -0.05028209 28.80364079 -0.03987726 34.50642109 -0.02441764 C40.65239137 -0.01313464 46.7982885 -0.03055168 52.94424438 -0.04431725 C64.29180969 -0.06529882 75.63920457 -0.06343387 86.98676568 -0.0497599 C97.46914755 -0.03719025 107.95148055 -0.03389481 118.43386841 -0.03987312 C119.47618355 -0.04044601 119.47618355 -0.04044601 120.53955556 -0.04103047 C123.36017036 -0.04258712 126.18078514 -0.04417912 129.00139988 -0.04582929 C155.46982959 -0.06112996 181.93817437 -0.04724803 208.40659097 -0.02034481 C231.93068256 0.00338388 255.45463884 0.00126077 278.97872925 -0.02264977 C305.39823166 -0.04941341 331.817659 -0.06004492 358.23717308 -0.04458845 C361.05269748 -0.04298482 363.8682219 -0.04142062 366.68374634 -0.03987312 C367.72365422 -0.03928004 367.72365422 -0.03928004 368.78457035 -0.03867498 C379.26127751 -0.03298367 389.73793047 -0.03964632 400.21463013 -0.05227089 C412.125176 -0.06655156 424.03556201 -0.06254412 435.94610167 -0.03586717 C442.02669824 -0.02269827 448.10701971 -0.01762909 454.18761444 -0.03411293 C459.74900746 -0.0489616 465.30986917 -0.04090813 470.87121367 -0.01422517 C472.88795816 -0.00861862 474.90474712 -0.01152896 476.92146325 -0.02360411 C479.65416015 -0.0387169 482.38501551 -0.02331245 485.11761475 0 C485.90843185 -0.01170583 486.69924896 -0.02341166 487.51403022 -0.03547221 C491.49567085 0.03284643 493.36124969 0.47628626 496.54693794 2.94216692 C499.14534229 6.41257765 499.2658653 9.24641747 499.18771362 13.42217445 C499.19012558 14.16824455 499.19253754 14.91431465 499.19502258 15.68299294 C499.1940458 17.25894936 499.18069213 18.8349408 499.1557312 20.41069984 C499.12165082 22.79270088 499.1350195 25.17093744 499.1545105 27.55303383 C499.14325141 39.56341174 497.23209472 49.66680878 488.55880737 58.6292057 C477.4463439 67.87561399 465.99379861 68.06646305 452.23901367 68.01688576 C450.35817359 68.02106094 448.47733604 68.02653947 446.59650314 68.03320557 C441.43890604 68.04765466 436.28146881 68.04341708 431.12386298 68.03603876 C425.55728135 68.03130808 419.99073435 68.04381607 414.42416382 68.05405617 C403.52294461 68.07125149 392.62178302 68.07208264 381.72055377 68.06684326 C372.85977684 68.06280167 363.99901693 68.064245 355.13824081 68.06959152 C353.24648677 68.07071416 353.24648677 68.07071416 351.31651547 68.07185947 C348.75444031 68.07339095 346.19236516 68.07492929 343.63029002 68.07647444 C326.42836005 68.08630298 309.22643825 68.09046717 292.02450752 68.08284855 C291.35209479 68.08255138 290.67968206 68.0822542 289.98689318 68.08194802 C284.52671357 68.07949918 279.06653403 68.07688755 273.6063545 68.07426389 C252.31036483 68.06416238 231.01445401 68.07251608 209.71847534 68.09575844 C185.78123054 68.12184132 161.84403956 68.13462669 137.90677536 68.12757069 C125.23652249 68.12407717 112.56633437 68.12631936 99.89609146 68.14382172 C89.11011645 68.15853642 78.32425178 68.15918862 67.53827895 68.14175081 C62.03616056 68.13323247 56.53423935 68.1311118 51.0321312 68.14640236 C45.99246708 68.16023429 40.95316936 68.15550527 35.91352652 68.13616312 C34.09328993 68.13239825 32.27302409 68.13533911 30.45281352 68.14577477 C16.39169197 68.220639 5.18445056 66.76212753 -5.44119263 56.6292057 C-13.72235419 47.66484831 -13.97552202 36.83281715 -13.94216919 25.27129555 C-13.94118882 22.869877 -13.98307572 20.47157734 -14.02713013 18.07061195 C-14.03233268 16.53285813 -14.03502539 14.99509332 -14.03494263 13.4573307 C-14.05133789 12.74578835 -14.06773315 12.03424599 -14.08462524 11.30114174 C-14.03484974 7.71030209 -13.59606391 5.83622912 -11.43031502 2.9411751 C-7.6157606 -0.00923372 -4.63041553 -0.06854032 0 0 Z " fill="#8E5E4E" transform="translate(13.441192626953125,410.37079429626465)"/>
<path d="M0 0 C1.21961131 -0.00445784 2.43922261 -0.00891569 3.69579184 -0.01350862 C5.05635175 -0.01341932 6.41691166 -0.01322946 7.77747154 -0.01294994 C9.21732761 -0.01624862 10.65718276 -0.01997419 12.09703672 -0.02409142 C16.06343538 -0.03411929 20.02981891 -0.03782948 23.99622846 -0.04048073 C28.27042297 -0.04438149 32.54460548 -0.05396002 36.81879234 -0.0626936 C47.14618576 -0.08246508 57.47358017 -0.09252535 67.80098778 -0.10142139 C72.66326052 -0.1058034 77.52553216 -0.11117046 82.38780403 -0.11641026 C98.54953409 -0.13342366 114.71126346 -0.14791789 130.8730011 -0.155159 C135.06799508 -0.15706892 139.26298906 -0.15898925 143.45798302 -0.16094494 C145.02196982 -0.16167055 145.02196982 -0.16167055 146.61755233 -0.16241082 C163.50834905 -0.1707113 180.39907497 -0.19604804 197.28984077 -0.22852562 C214.6277609 -0.2615914 231.96564503 -0.27960735 249.30359685 -0.28280324 C259.03959885 -0.28496884 268.7754976 -0.29372482 278.51146889 -0.31926441 C286.80313722 -0.34096488 295.09467723 -0.34902507 303.38637073 -0.33929763 C307.61636348 -0.33475095 311.84609142 -0.3366604 316.0760479 -0.35605907 C319.95133588 -0.37367757 323.82616562 -0.37270395 327.70145838 -0.35716178 C329.10058302 -0.35478369 330.49973928 -0.35911984 331.89881559 -0.37099043 C343.21218553 -0.46100497 351.07072783 1.4393932 359.46335411 9.19672108 C366.79578107 17.4249649 366.80497313 27.51722299 366.37790489 37.9642992 C365.81359442 44.47805435 362.85861085 50.59170776 358.18991661 55.13422108 C348.3294275 62.92498376 339.47357164 63.43026798 327.23560143 63.39491749 C325.81689054 63.3979409 324.39818129 63.40183134 322.9794749 63.40651006 C319.09468617 63.41677432 315.2099899 63.41461225 311.32519364 63.41032946 C307.13013802 63.40785938 302.93510449 63.4168799 298.74005699 63.42436695 C290.52679967 63.43710811 282.31357505 63.43890837 274.10030951 63.43656669 C267.42342715 63.43478273 260.74655471 63.43653485 254.06967354 63.44079113 C252.64354386 63.44168391 252.64354386 63.44168391 251.18860348 63.44259473 C249.25706507 63.4438065 247.32552665 63.44502063 245.39398824 63.44623711 C227.28506288 63.45711039 209.17615614 63.45495115 191.06722973 63.44885226 C174.50722972 63.44368324 157.94728853 63.45493855 141.38730015 63.47395048 C124.37578635 63.4933308 107.36430037 63.50158454 90.35277545 63.49782723 C80.80519479 63.49591549 71.2576642 63.49840014 61.71009254 63.51254177 C53.58217398 63.52445899 45.45433631 63.52585661 37.32641663 63.5137516 C33.18137417 63.50786534 29.03647965 63.50675647 24.89144707 63.51875401 C21.0928469 63.52962083 17.29451805 63.52650008 13.49593054 63.51249232 C11.47960969 63.50860003 9.46327676 63.51938594 7.44698441 63.5307892 C-2.48139741 63.47181666 -12.42897059 62.44314696 -19.81008339 55.13422108 C-27.98824643 44.91623907 -28.98444072 34.81187403 -27.81008339 22.13422108 C-26.14983644 14.76749658 -21.05771484 7.83583961 -14.68508339 3.78265858 C-9.73900408 1.25506658 -5.59356783 0.0094632 0 0 Z " fill="#E18657" transform="translate(86.81008338928223,348.86577892303467)"/>
<path d="M0 0 C1.42538514 -0.00373905 2.85076823 -0.0083416 4.27614808 -0.01373065 C8.18406405 -0.02594458 12.09189431 -0.02570208 15.999825 -0.02334189 C20.21809739 -0.02293332 24.43634244 -0.03397677 28.65460205 -0.04345703 C36.91578678 -0.0600593 45.17694297 -0.06556623 53.43814299 -0.06668179 C60.15461013 -0.06763265 66.87106787 -0.07174485 73.58753204 -0.07808304 C92.63724231 -0.09569351 111.68693006 -0.10492224 130.73664853 -0.10342209 C132.27662756 -0.10330222 132.27662756 -0.10330222 133.84771729 -0.10317993 C134.87562607 -0.10309817 135.90353486 -0.10301641 136.96259239 -0.10293217 C153.6189937 -0.10211937 170.27530455 -0.12125592 186.9316797 -0.14945666 C204.04147863 -0.1781961 221.15123346 -0.19199637 238.26105714 -0.19026911 C247.86403616 -0.18960557 257.46692036 -0.19508231 267.06987762 -0.21662521 C275.24648241 -0.23485097 283.42294939 -0.23917291 291.59956571 -0.22560637 C295.76907222 -0.21908369 299.93831447 -0.21893404 304.10779572 -0.23631287 C307.92999358 -0.25207991 311.75171844 -0.24914336 315.57390502 -0.2317446 C317.60047866 -0.22723987 319.62706718 -0.24230347 321.65358329 -0.25822389 C330.92434467 -0.18849383 338.54072068 1.3446957 346.40924072 6.39242554 C355.0164958 15.60018679 356.74952498 24.40557012 356.50299072 36.62680054 C356.04863422 44.59102092 352.56606212 51.30981842 346.78424072 56.76742554 C338.05572948 62.97911942 330.36257334 63.8491212 319.78765869 63.77536011 C318.34261892 63.77997451 316.89758385 63.78633103 315.45255852 63.79426908 C311.4995884 63.81091177 307.54700635 63.80273931 303.59403515 63.79032421 C299.32401638 63.7812552 295.05406325 63.79525261 290.78405762 63.8062439 C282.42618578 63.82401398 274.06845778 63.82019588 265.71058035 63.80859333 C258.91690486 63.79955334 252.12326963 63.79833746 245.32958984 63.8026886 C244.36203133 63.80330153 243.39447281 63.80391446 242.39759433 63.80454597 C240.43190971 63.80582489 238.4662251 63.80712175 236.50054049 63.80843633 C218.0759128 63.81983771 199.65136476 63.80673537 181.22675014 63.78523487 C165.42360815 63.76736429 149.62058371 63.77046853 133.81744385 63.78890991 C115.45795571 63.81032444 97.09853735 63.81873911 78.73903847 63.80646086 C76.78065619 63.80518668 74.8222739 63.8039292 72.8638916 63.8026886 C71.90037431 63.8020715 70.93685701 63.80145439 69.94414222 63.80081859 C63.16001004 63.79736744 56.37592219 63.80318898 49.59179688 63.81260681 C41.32221066 63.82383463 33.05277628 63.82077027 24.78320742 63.79948384 C20.56533993 63.78898396 16.34772544 63.78483339 12.12985992 63.79808044 C8.26588819 63.81003233 4.40240309 63.8033962 0.53847528 63.78217024 C-0.85642193 63.77771596 -2.25136055 63.77994403 -3.64623094 63.78967339 C-13.95288789 63.85602764 -22.54664007 62.48674395 -30.26263428 55.18539429 C-37.62901096 46.57374916 -38.98018093 37.67576368 -38.43060303 26.72055054 C-37.92314401 21.1279537 -36.18094053 16.81817718 -32.90325928 12.26742554 C-32.30513428 11.33930054 -31.70700928 10.41117554 -31.09075928 9.45492554 C-22.05023079 0.41439705 -12.18345509 -0.02862209 0 0 Z " fill="#ECB84F" transform="translate(96.90325927734375,285.7325744628906)"/>
<path d="M0 0 C0.9667717 -0.00043808 1.9335434 -0.00087616 2.92961121 -0.00132751 C6.10042057 0.00074955 9.27069013 0.02402958 12.44140625 0.04760742 C14.64957389 0.05320722 16.85774526 0.0574755 19.06591797 0.06047058 C24.85933846 0.07188907 30.65253098 0.10133056 36.44586182 0.13458252 C43.40679718 0.17076338 50.36780904 0.18445881 57.32881165 0.20194244 C67.88733475 0.23096954 78.44535828 0.28847807 89.00390625 0.34057617 C89.00390625 21.13057617 89.00390625 41.92057617 89.00390625 63.34057617 C81.57890625 65.32057617 81.57890625 65.32057617 74.00390625 67.34057617 C65.69082833 72.35119848 60.54416169 78.65748441 57.59545898 87.90332031 C56.64446313 91.82151743 56.69140625 95.6413828 56.69140625 99.65307617 C56.37384291 110.37188367 53.60816074 118.2230634 45.75390625 125.84057617 C38.14354012 131.92886908 30.92382144 134.03787853 21.19921875 133.73901367 C15.11767429 132.98067928 10.06576627 130.71514952 5.00390625 127.34057617 C2.15716035 127.14756415 -0.59272752 127.07080033 -3.43969727 127.08520508 C-4.30189377 127.08158463 -5.16409027 127.07796417 -6.05241394 127.07423401 C-7.92668664 127.06733649 -9.80097945 127.06483524 -11.67526436 127.06618118 C-14.64822567 127.06714621 -17.62082516 127.05420443 -20.59373474 127.03720093 C-29.04724265 126.99093828 -37.50071562 126.96634709 -45.9543457 126.9597168 C-51.1256496 126.95468283 -56.29657938 126.93033084 -61.46775627 126.89439011 C-63.43276656 126.88462943 -65.39782859 126.88223966 -67.36285591 126.8875618 C-79.01643693 126.91762603 -88.2192971 126.7715586 -98.24609375 120.21557617 C-106.9613037 111.10422032 -108.64835541 102.17652549 -108.40234375 89.98120117 C-107.94798725 82.01698079 -104.46541515 75.29818329 -98.68359375 69.84057617 C-91.24125236 64.49972246 -84.58185842 62.74508368 -75.4921875 62.94995117 C-74.04635033 62.95844086 -74.04635033 62.95844086 -72.57130432 62.96710205 C-69.52487254 62.9893021 -66.47966359 63.03946681 -63.43359375 63.09057617 C-61.35483482 63.11066236 -59.27605726 63.1289094 -57.19726562 63.14526367 C-52.12974483 63.18911308 -47.06312584 63.25802536 -41.99609375 63.34057617 C-42.05914703 62.34343849 -42.05914703 62.34343849 -42.12347412 61.32615662 C-43.26134509 43.10383929 -44.18649899 27.74813682 -31.74609375 13.02807617 C-27.62611681 8.66896293 -23.50443954 5.6836125 -17.99609375 3.34057617 C-16.83207031 2.83125046 -15.66804688 2.32192474 -14.46875 1.79716492 C-9.61447233 -0.00421554 -5.13154791 -0.06170614 0 0 Z " fill="#FAF3F3" transform="translate(166.99609375,97.659423828125)"/>
<path d="M0 0 C7.4681339 -0.06985113 14.93626256 -0.12290064 22.4046129 -0.16339397 C26.78377882 -0.18795594 31.16246812 -0.22130421 35.54136437 -0.27644491 C39.58278255 -0.32725056 43.62368455 -0.35501256 47.66540426 -0.36468458 C49.13806028 -0.37239924 50.61070052 -0.38874198 52.08315319 -0.41440153 C54.08811153 -0.4481471 56.09355513 -0.44799169 58.09879655 -0.44610739 C59.21683388 -0.45570234 60.3348712 -0.4652973 61.48678845 -0.47518301 C65.47838372 0.33240484 66.97217598 1.98391864 69.47527665 5.12945414 C69.96458885 7.93755722 70.15653249 10.12530849 70.1041829 12.92242289 C70.10659486 13.66849298 70.10900681 14.41456308 70.11149186 15.18324137 C70.11051508 16.75919779 70.0971614 18.33518924 70.07220048 19.91094828 C70.0381201 22.29294931 70.05148877 24.67118588 70.07097977 27.05328226 C70.05972068 39.06366017 68.14856399 49.16705721 59.47527665 58.12945414 C51.14330651 65.06228212 42.44010465 67.59885416 31.73722428 67.49021769 C30.79848452 67.49278096 29.85974476 67.49534423 28.89255834 67.49798518 C25.76948036 67.50289844 22.64689354 67.48647075 19.52386063 67.47003031 C17.27625638 67.4691835 15.0286513 67.46966022 12.78104752 67.47135782 C6.69492461 67.47221712 0.60897975 67.4546018 -5.47710186 67.43363595 C-11.84322179 67.41485831 -18.20934599 67.41311785 -24.57548934 67.40955973 C-35.25562377 67.40130048 -45.93568804 67.38257298 -56.6157878 67.3557725 C-67.61285482 67.32820544 -78.60990411 67.30698484 -89.60699874 67.29424906 C-90.28566922 67.29346089 -90.9643397 67.29267272 -91.66357595 67.29186066 C-95.06850838 67.28794535 -98.47344093 67.28415427 -101.87837356 67.28042495 C-130.09387904 67.24936083 -158.30927368 67.19407498 -186.52472335 67.12945414 C-186.52472335 45.34945414 -186.52472335 23.56945414 -186.52472335 1.12945414 C-165.46311052 0.99644162 -144.40148728 0.86561445 -123.33983928 0.73830271 C-113.5501404 0.67906443 -103.76044827 0.61898532 -93.97076827 0.55670023 C-90.18341525 0.53269609 -86.39606171 0.50877479 -82.60870773 0.48492289 C-81.6701504 0.47900629 -80.73159307 0.47308969 -79.76459461 0.46699381 C-69.34290265 0.4016786 -58.92121363 0.34154701 -48.49942428 0.29400492 C-47.56197777 0.28971853 -46.62453126 0.28543215 -45.65867728 0.28101587 C-41.88099982 0.26386595 -38.10332201 0.24684981 -34.32564074 0.23055887 C-22.88342482 0.18090662 -11.44181939 0.10808124 0 0 Z " fill="#714343" transform="translate(442.52472335100174,410.8705458641052)"/>
<path d="M0 0 C1.0686533 0.00356205 1.0686533 0.00356205 2.15889555 0.00719607 C4.52809756 0.01755021 6.89691592 0.04241337 9.26600647 0.06729126 C10.97144567 0.07772527 12.67689057 0.08725903 14.38233948 0.09596252 C18.9996437 0.12206778 23.61676669 0.16073604 28.23395991 0.20168638 C33.06389452 0.24237828 37.89389874 0.27147977 42.72390747 0.30181885 C51.86460677 0.36099198 61.00519604 0.43056543 70.14579159 0.50388968 C80.55440842 0.58687831 90.9630948 0.65825109 101.37180316 0.72865558 C122.77813389 0.87370783 144.18430317 1.03485641 165.59046936 1.20254517 C165.59046936 21.66254517 165.59046936 42.12254517 165.59046936 63.20254517 C142.92873532 63.29289326 120.26714746 63.36655504 97.60527897 63.40979385 C87.08261726 63.43040539 76.56007554 63.45849911 66.03749084 63.50430298 C56.86433739 63.54421381 47.69127084 63.56998822 38.51803297 63.57889915 C33.66235464 63.58410669 28.80692491 63.59631702 23.95132637 63.62546539 C19.37702241 63.65270156 14.80306845 63.66097362 10.2286911 63.65497589 C8.55377994 63.65607247 6.87885655 63.66397743 5.20401573 63.67936707 C-5.84935628 63.77591486 -15.33927486 63.09715052 -23.76890564 55.12051392 C-31.13528232 46.50886879 -32.48645229 37.61088331 -31.93687439 26.65567017 C-31.42941537 21.06307332 -29.68721189 16.75329681 -26.40953064 12.20254517 C-25.81140564 11.27442017 -25.21328064 10.34629517 -24.59703064 9.39004517 C-17.6804828 2.47349733 -9.72300853 -0.07061008 0 0 Z " fill="#F4DA9E" transform="translate(90.40953063964844,285.7974548339844)"/>
<path d="M0 0 C1.07577741 -0.00128164 1.07577741 -0.00128164 2.17328769 -0.00258917 C4.58241333 -0.00423954 6.99146973 0.00127019 9.40058899 0.00672913 C11.12514748 0.00701112 12.8497061 0.00685303 14.57426453 0.00628662 C19.26196438 0.00599912 23.94963876 0.01188825 28.63733268 0.01886058 C33.53406887 0.02510195 38.43080561 0.02569854 43.32754517 0.02688599 C52.60289274 0.02999698 61.87822856 0.03820727 71.15357095 0.04823548 C81.71208374 0.05940378 92.27059709 0.06490888 102.82911432 0.06993091 C124.5512708 0.08039006 146.27341116 0.09873269 167.99555969 0.12025452 C167.99555969 20.58025452 167.99555969 41.04025452 167.99555969 62.12025452 C145.0557874 62.21057952 122.11615928 62.28425096 99.17625427 62.3275032 C88.52464935 62.34812055 77.87316283 62.37622541 67.22163391 62.42201233 C57.9367887 62.46190533 48.65202925 62.48769335 39.36710072 62.4966085 C34.45165196 62.50181905 29.53644855 62.51404863 24.62107849 62.54317474 C19.99178675 62.5703827 15.36284075 62.57868863 10.73347664 62.57268524 C9.03718243 62.57378307 7.34087632 62.58170491 5.64465141 62.59707642 C-4.37536158 62.68340364 -11.85919483 62.680813 -19.75444031 55.68275452 C-20.49694031 54.83712952 -21.23944031 53.99150452 -22.00444031 53.12025452 C-22.70569031 52.35712952 -23.40694031 51.59400452 -24.12944031 50.80775452 C-28.45215539 44.6118629 -29.54176122 38.55692636 -29.44194031 31.18275452 C-29.43364197 30.39078674 -29.42534363 29.59881897 -29.41679382 28.78285217 C-29.1507819 19.59455432 -26.1692639 13.58413694 -19.94194031 6.84681702 C-14.11986432 1.65859607 -7.64454215 -0.00547211 0 0 Z " fill="#ECB84F" transform="translate(88.00444030761719,348.87974548339844)"/>
<path d="M0 0 C2.02681264 -0.00337341 4.05362331 -0.00823038 6.08042908 -0.01449585 C10.31431466 -0.0218407 14.54767046 -0.01123767 18.78149414 0.01220703 C24.19070828 0.04071141 29.59868272 0.02426472 35.0078516 -0.00565529 C39.18852474 -0.02377727 43.36890696 -0.01794807 47.54958916 -0.00501633 C49.54336128 -0.00169681 51.53716038 -0.00571783 53.53090096 -0.01741409 C56.32347089 -0.03020592 59.11406992 -0.01063127 61.90649414 0.01708984 C62.71869415 0.00696869 63.53089417 -0.00315247 64.3677063 -0.01358032 C69.90556994 0.08755534 73.5088873 1.53412899 78.18271542 4.49540138 C83.8755849 7.76932612 90.87357542 7.20946975 97.21484375 6.6640625 C102.01375515 5.33173315 106.07929653 3.42109398 110.21484375 0.6640625 C112.28398132 0.42355347 112.28398132 0.42355347 114.6862793 0.43701172 C115.59953979 0.43725342 116.51280029 0.43749512 117.45373535 0.43774414 C118.41001831 0.44797607 119.36630127 0.45820801 120.3515625 0.46875 C121.2331604 0.47076416 122.1147583 0.47277832 123.02307129 0.47485352 C126.31621504 0.48531737 129.60928462 0.51323996 132.90234375 0.5390625 C140.26546875 0.5803125 147.62859375 0.6215625 155.21484375 0.6640625 C155.21484375 21.4540625 155.21484375 42.2440625 155.21484375 63.6640625 C132.97880244 63.75445715 110.74291056 63.82809941 88.50673199 63.87131119 C78.18142289 63.89191102 67.85623631 63.91998225 57.53100586 63.96582031 C48.5284982 64.0057671 39.52607931 64.03151405 30.52348548 64.04041648 C25.75940287 64.04561796 20.99557412 64.05778937 16.2315731 64.08698273 C11.74098036 64.11427587 7.25074434 64.12247959 2.76007652 64.11649323 C1.11825619 64.11758728 -0.52357694 64.12545805 -2.16532516 64.1408844 C-14.38341318 64.24998926 -24.90464346 63.30777006 -34.1328125 54.45703125 C-41.80919858 46.12733572 -42.33965418 37.75750909 -42.09375 27.02734375 C-41.82992906 21.86586775 -40.76587583 17.92728753 -37.78515625 13.6640625 C-37.29917969 12.96023437 -36.81320313 12.25640625 -36.3125 11.53125 C-26.71081347 -0.77162021 -14.3072262 -0.08403179 0 0 Z " fill="#ECB84F" transform="translate(100.78515625,223.3359375)"/>
<path d="M0 0 C1.75832981 0.00747124 3.51666801 0.01316 5.27500916 0.01715088 C9.87665266 0.03233781 14.47778174 0.07155867 19.07922363 0.1159668 C23.78516687 0.15707029 28.49119417 0.17519393 33.19726562 0.1953125 C42.4116829 0.23806055 51.62572035 0.30622651 60.83984375 0.390625 C60.83904816 0.94026917 60.83825256 1.48991333 60.83743286 2.05621338 C60.83497467 7.83295576 60.87459918 13.60837349 60.9375 19.38476562 C60.95554821 21.53379142 60.96324903 23.68293218 60.95996094 25.83203125 C60.94554799 41.34035758 61.90852452 51.03799606 71.83984375 63.390625 C60.40846223 63.48354165 48.97717142 63.55449979 37.54548836 63.59787369 C32.23656952 63.61869708 26.92791016 63.64691857 21.61914062 63.69238281 C16.49033961 63.73602805 11.36178727 63.75980153 6.23281479 63.77013397 C4.28169722 63.77749191 2.33059238 63.7918599 0.37958145 63.81354523 C-11.27377411 63.93785228 -20.38029991 63.82360799 -30.41015625 57.265625 C-39.1253662 48.15426914 -40.81241791 39.22657432 -40.56640625 27.03125 C-40.11204975 19.06702962 -36.62947765 12.34823212 -30.84765625 6.890625 C-20.92420295 -0.10717853 -11.77195433 -0.14746394 0 0 Z " fill="#F4DA9E" transform="translate(99.16015625,160.609375)"/>
<path d="M0 0 C19.48396827 -0.24065286 19.48396827 -0.24065286 27.8515625 -0.29296875 C33.5397338 -0.32870214 39.22732029 -0.37076543 44.91503906 -0.45263672 C49.5057283 -0.51829606 54.09578962 -0.55380322 58.68691254 -0.56926346 C60.42989728 -0.58026697 62.17285142 -0.60175272 63.91556549 -0.63438034 C75.34868626 -0.83973196 84.91997604 -0.21574812 93.98321533 7.74111938 C95.57877991 9.39411555 96.77756851 11.05706254 98 13 C98.40992188 13.598125 98.81984375 14.19625 99.2421875 14.8125 C103.83992526 22.92988529 103.30967311 34.30607358 101.26953125 43.17578125 C98.16891989 51.51579304 92.95182675 57.03127634 85 61 C80.29339357 62.87821249 76.0755542 63.27727137 71.06689453 63.22705078 C70.2954863 63.22734283 69.52407806 63.22763489 68.72929382 63.22793579 C66.1970162 63.22655011 63.66503828 63.21102512 61.1328125 63.1953125 C59.37019003 63.19157966 57.60756548 63.18873396 55.84494019 63.18673706 C51.21877251 63.17912198 46.59273157 63.15949182 41.96661377 63.1373291 C36.40904356 63.1132161 30.85143085 63.10407957 25.29382324 63.09242249 C16.86246084 63.07306613 8.4313762 63.03472878 0 63 C0 42.21 0 21.42 0 0 Z " fill="#ECB84F" transform="translate(351,161)"/>
<path d="M0 0 C7.62630526 5.47502028 13.17086811 11.57165655 15 21 C15.77578452 31.81011223 15.15245005 40.89310504 8.375 49.75 C3.13292569 55.40768634 -4.16541799 59.72968707 -11.87890625 60.2734375 C-21.01260386 60.55238133 -28.29688844 60.52183442 -36 55 C-36.57878906 54.61585937 -37.15757812 54.23171875 -37.75390625 53.8359375 C-43.68678017 49.46434619 -47.07757191 42.96667525 -49 36 C-50.07898117 24.70833664 -48.98820791 15.5986118 -41.75 6.6875 C-30.70540971 -4.99427819 -14.24698591 -7.7578478 0 0 Z " fill="#DC3D3C" transform="translate(273,38)"/>
<path d="M0 0 C-0.99 0.33 -1.98 0.66 -3 1 C-3 21.46 -3 41.92 -3 63 C-17.52 63 -32.04 63 -47 63 C-45.02 60.36 -43.04 57.72 -41 55 C-37.22639893 48.77865769 -36.72382849 43.73517013 -36.5 36.625 C-36.09886196 24.70349914 -33.81550901 16.86017701 -25.2890625 8.09765625 C-18.18621474 1.58873262 -9.54651238 -0.50244802 0 0 Z " fill="#F4DA9E" transform="translate(259,161)"/>
<path d="M0 0 C8.27102554 0 13.39776901 1.64469512 20.25 6.125 C28.0808932 14.31184289 31.34916222 23.36066087 31.1953125 34.55859375 C31.1924826 35.34774673 31.18965271 36.13689972 31.18673706 36.94996643 C31.17563057 39.44597172 31.15054455 41.94160498 31.125 44.4375 C31.11495785 46.13996874 31.10583417 47.84244316 31.09765625 49.54492188 C31.07743244 53.69686977 31.03826707 57.84802333 31 62 C20.77 62 10.54 62 0 62 C0 41.54 0 21.08 0 0 Z " fill="#ECB84F" transform="translate(256,162)"/>
<path d="M0 0 C0 21.12 0 42.24 0 64 C-9.68624375 64 -14.77277591 62.371292 -22.3125 56.6875 C-29.11939733 49.88060267 -32.27394969 42.41040983 -32.375 32.75 C-32.2107968 22.88814888 -29.71826453 15.94239518 -22.921875 8.75390625 C-16.08200002 2.51182523 -9.3166078 0 0 0 Z " fill="#E3865B" transform="translate(256,34)"/>
</svg>
